<?xml version="1.0" encoding="UTF-8" standalone="no"?>
<!-- Created with Inkscape (http://www.inkscape.org/) -->

<svg
   version="1.1"
   id="svg62"
   width="1154.1476"
   height="745.01062"
   viewBox="0 0 1154.1476 745.01062"
   xmlns="http://www.w3.org/2000/svg"
   xmlns:svg="http://www.w3.org/2000/svg">
  <defs
     id="defs66" />
  <g
     id="g68"
     transform="translate(1359.0505,-179.76437)">
    <path
       style="fill:#ffffff;fill-opacity:0.674952"
       d="m -899.97502,923.87013 c -130.42548,-3.1066 -283.29048,-14.19868 -351.79368,-25.52656 -53.5937,-8.86239 -92.2949,-19.42928 -98.4874,-26.89072 -0.6916,-0.83337 -1.7932,-1.51522 -2.448,-1.51522 -9.0339,0 -8.2069,-21.98736 1.1026,-29.31017 1.328,-1.04459 5.7961,-5.23729 9.9293,-9.31712 4.1331,-4.07982 9.2469,-8.51132 11.364,-9.84778 2.1171,-1.33646 6.0462,-4.62688 8.7314,-7.31204 2.6851,-2.68517 8.6904,-7.45103 13.3451,-10.5908 9.3134,-6.28232 10.8237,-7.32524 15.963,-11.02332 1.925,-1.38517 5.3,-3.48898 7.5,-4.67514 2.2,-1.18616 4.7518,-2.81663 5.6706,-3.62326 0.9188,-0.80663 3.1688,-2.27128 5,-3.25476 3.3294,-1.78816 3.3294,-1.78816 3.0333,-76.16688 -0.1629,-40.9083 0.097,-80.22873 0.5768,-87.37873 0.805,-11.98837 0.6923,-13.70036 -1.4473,-22 -4.1574,-16.12631 -8.1394,-36.62454 -10.8786,-56 -1.988,-14.0623 -3.1924,-19.7131 -4.6343,-21.74398 -2.1837,-3.07574 -2.1835,-9.25602 3e-4,-9.25602 0.7264,0 2.218,-2.7 3.3146,-6 5.8641,-17.64777 16.0761,-39.83345 22.2348,-48.30544 21.8523,-30.06061 48.2999,-49.85254 88.3152,-66.09038 5.7388,-2.32878 9.3366,-2.56761 17.3978,-1.1549 2.9792,0.52211 9.4668,1.45014 14.4168,2.0623 4.95,0.61215 11.8287,1.81875 15.286,2.68134 8.3517,2.0837 8.6456,1.287 1.8978,-5.14509 -7.5566,-7.2031 -7.4676,-8.6487 0.9576,-15.54783 1.703,-1.39459 1.5516,-1.52226 -2.1548,-1.81683 -6.5219,-0.51831 -6.3895,-1.12663 4.0034,-18.39163 51.7528,-85.97334 89.5496,-129.66703 124.69921,-144.15428 2.92095,-1.20389 6.63681,-3.07452 8.25749,-4.15696 2.01587,-1.34638 4.8588,-2.01976 9,-2.13173 3.32932,-0.09 13.25332,-1.52779 22.05332,-3.19503 119.75088,-22.68795 285.4278,-23.13854 402.56573,-1.09484 9.03887,1.70098 19.95177,3.48115 24.25097,3.95593 43.111,4.76096 89.6196,52.05214 154.0455,156.63746 7.0451,11.43659 7.1142,13.34791 0.4826,13.34791 -1.8545,0 -1.7801,0.36967 1.0818,5.37173 3.7839,6.6135 3.7907,7.25933 0.1336,12.70462 -3.7965,5.65286 -4.0473,5.59547 8.5999,1.96796 5.9619,-1.71003 15.0161,-3.63733 20.1202,-4.28289 8.6271,-1.09112 9.1023,-1.26706 6.75,-2.49952 -3.0275,-1.58627 -3.3032,-4.7779 -0.5404,-6.25649 1.6558,-0.88615 1.7922,-1.38142 0.8127,-2.94995 -0.97,-1.55319 -0.6162,-3.10226 2.0101,-8.79999 3.9232,-8.5116 3.9649,-7.7349 -0.6552,-12.21855 -10.2527,-9.94987 -7.0302,-33.59703 5.8498,-42.92728 15.355,-11.12305 58.7081,-0.79997 67.5751,16.0907 5.6663,10.79371 -10.5084,24.95322 -34.0423,29.80093 -3.2779,0.67522 -6.953,1.87837 -8.1667,2.67366 -1.7621,1.15457 -2.5963,1.20279 -4.1392,0.23924 -4.0464,-2.52703 -7.1009,-0.40245 -10.8889,7.57392 -4.2855,9.0242 -5.0155,7.86664 10.4256,16.53134 7.0929,3.98015 14.5228,8.98876 16.78,11.31172 2.2281,2.29287 8.7979,7.02957 14.5998,10.526 34.1293,20.56786 54.782,46.84827 70.4466,89.64285 4.8587,13.27336 5.8156,19.33552 3.7252,23.59861 -0.6477,1.32077 -1.7079,7.57639 -2.3561,13.90139 -1.8909,18.45157 -8.7346,53.94382 -13.3741,69.35972 -1.1602,3.85506 -1.2277,9.12902 -0.3953,30.89445 2.2267,58.21911 -1.0736,139.76563 -7.8466,193.88034 -1.7571,14.0383 -2.2069,12.19627 4.873,19.95426 1.9243,2.10858 3.7078,5.8119 4.9393,10.2557 1.0601,3.82546 2.3472,7.73976 2.8603,8.69845 3.34,6.24083 -19.9193,17.54816 -47.023,22.85985 -131.1045,25.69347 -296.7046,37.35123 -524.5,36.92333 -44,-0.083 -94.04285,-0.4847 -111.20634,-0.8936 z m 285.20634,-9.85919 c 86.4007,-4.42664 160.9492,-12.68716 217.9622,-24.15178 31.1732,-6.26856 45.2014,-8.03215 106.9674,-13.44764 23.9467,-2.09959 31.5704,-3.7534 31.5704,-6.84856 0,-1.36226 4.0652,-3.62533 6.5123,-3.62533 4.817,0 11.2871,-9.50349 14.4174,-21.1768 3.1232,-11.64665 8.8739,-57.71396 7.4851,-59.96105 -0.3341,-0.54057 -0.051,-2.32604 0.6289,-3.96771 1.1008,-2.65758 1.0018,-3.20344 -0.9037,-4.9786 -2.6443,-2.46361 -2.6617,-3.13377 -0.14,-5.41584 3.2978,-2.98443 2.6117,-5.5 -1.5,-5.5 -4.5494,0 -4.4524,-1.53582 0.2366,-3.74369 5.4791,-2.57989 5.6018,-5.25631 0.241,-5.25631 -8.1535,0 -13.1704,-5.28479 -6.1438,-6.47192 6.25,-1.05594 13.2047,-6.24022 8.9162,-6.6465 -1.7764,-0.16829 -1.4453,-0.18621 -10.5,0.56836 -9.0578,0.75482 -11.3452,-0.62079 -4,-2.40551 20.2287,-4.91516 22.449,-8.81259 4.7777,-8.38647 -10.0277,0.24181 -10.0277,0.24181 -10.0277,-2.70808 0,-1.75375 0.5271,-2.94988 1.3,-2.94988 0.715,0 1.8452,-0.54518 2.5115,-1.21151 0.6663,-0.66633 2.9804,-1.08379 5.1423,-0.92769 4.2682,0.30816 13.0462,-2.97772 13.0462,-4.88357 0,-1.30765 -13.3068,-0.93327 -16.338,0.45965 -1.5385,0.70703 -1.7829,0.46058 -1.5,-1.51266 0.2835,-1.97728 1.3433,-2.61162 6.5739,-3.93496 11.4336,-2.8927 15.0701,-8.7468 4.5365,-7.30301 -2.3498,0.32208 -4.2724,0.20836 -4.2724,-0.25272 0,-1.35478 6.2747,-7.43353 7.6731,-7.43353 4.2415,0 6.4593,-31.58801 4.5948,-65.44153 l -0.7679,-13.94152 -4.3781,13.44152 c -14.3524,44.06464 -24.8471,65.39269 -39.7048,80.69054 -7.8841,8.11768 -14.8338,17.91352 -15.9569,22.49167 -0.951,3.87646 2.2484,5.09836 4.4675,1.70621 4.3751,-6.68797 7.1051,-7.5453 6.9954,-2.19689 -0.1853,9.04215 -1.8071,11.46084 -8.9383,13.32975 -3.5667,0.93472 -8.4805,2.43356 -10.9197,3.33076 -2.4392,0.89719 -14.3035,4.13173 -26.365,7.18786 -12.0615,3.05613 -27.3908,7.29082 -34.0651,9.41043 -6.6742,2.11961 -18.4077,5.7189 -26.0743,7.99842 -25.1014,7.46335 -31.3863,11.78481 -24.0912,16.56475 5.3026,3.4744 60.3775,-8.47106 93.4956,-20.27872 10.8743,-3.87704 31.0312,-9.25699 34.7849,-9.28419 3.3615,-0.0244 0.5033,1.8347 -6,3.90262 -11.2836,3.58793 -15.7626,6.52158 -24.619,16.12496 -9.007,9.76662 -11.2725,11.10246 -27.087,15.97172 -8.3505,2.57112 -14.5792,3.99202 -39.9291,9.10861 -5.3851,1.08692 -5.3851,1.08692 -4.7428,7.73498 2.6286,27.20653 3.4207,25.38212 -10.1996,23.49378 -16.8065,-2.33007 -20.5346,-4.15849 -22.6715,-11.11911 -0.967,-3.14964 -2.1502,-6.15412 -2.6295,-6.67662 -0.4793,-0.5225 -0.8715,-1.97643 -0.8715,-3.23095 0,-3.38721 -1.5835,-3.50621 -34.0186,-2.55659 -29.7916,0.87222 -37.0431,0.52689 -31.9814,-1.52303 9.6225,-3.897 53.6308,-27.42946 87,-46.52132 27.0589,-15.48146 36.9524,-21.48635 63.3402,-38.44446 21.8955,-14.07112 26.4621,-16.36776 44.1598,-22.20906 18.7633,-6.19301 18.6394,-6.09837 13.0089,-9.93272 -3.4775,-2.36814 -3.4775,-2.36814 -16.7432,0.33434 -24.435,4.97788 -30.4051,7.26018 -50.3079,19.23195 -5.4768,3.29436 -19.4078,11.51277 -30.9578,18.26314 -11.55,6.75036 -25.725,15.0765 -31.5,18.50254 -48.8995,29.00983 -69.7309,36.51927 -111,40.01411 -41.69895,3.53123 -37.2088,3.45406 -46.27824,0.79542 -13.88249,-4.06957 -16.93136,-4.07706 -101.22176,-0.24864 -49.3865,2.24311 -123.78995,1.85704 -187.5,-0.97291 -13.475,-0.59855 -31.04787,-1.36994 -39.05081,-1.71421 -15.67134,-0.67414 -26.80144,0.42692 -37.27895,3.68789 -5.2369,1.62991 -7.41673,1.75335 -17.08647,0.96759 -6.09607,-0.49536 -18.05877,-1.41423 -26.58377,-2.04193 -40.01422,-2.94627 -62.23702,-10.20991 -102.57582,-33.52754 -5.4583,-3.15512 -20.4992,-11.79597 -33.4242,-19.20188 -12.925,-7.40591 -30.2911,-17.46389 -38.5914,-22.35107 -23.4921,-13.83215 -41.3778,-20.10088 -64.1754,-22.49279 -10.6728,-1.11978 -13.3948,3.10966 -3.9714,6.17085 16.0746,5.22189 33.2173,13.76807 53.4483,26.64566 28.3096,18.01991 56.641,34.54121 91.7899,53.52678 26.7983,14.47503 49.2224,26.26026 55.9549,29.40768 6.1034,2.85336 6.6543,3.32622 4.5,3.86261 -8.9535,2.22922 -105.542,-4.33445 -110.5587,-7.51301 -1.1571,-0.73314 -3.8571,-1.63573 -6,-2.00578 -32.6005,-5.62953 -50.6931,-12.75718 -60.7405,-23.92889 -7.5655,-8.41211 -13.5364,-12.01876 -24.9067,-15.04459 -8.6989,-2.31495 -9.2294,-2.99332 -7.6967,-9.84226 1.178,-5.26403 0.8519,-17.79504 -0.6222,-23.90693 -0.9535,-3.9532 1.4648,-3.58254 5.3645,0.82223 1.7395,1.96473 3.6222,3.28817 4.184,2.94099 3.4281,-2.11866 -1.8396,-11.29264 -13.4958,-23.50368 -15.7823,-16.53357 -25.0862,-35.33241 -41.0024,-82.8472 -3.1484,-9.39873 -5.0765,-13.84859 -5.5973,-12.91788 -1.177,2.10319 -0.5908,76.94403 0.6169,78.75554 0.55,0.825 1,3.975 1,7 0,5.25662 0.1217,5.514 2.75,5.81642 2.7811,0.32 3.5835,1.55043 1.75,2.68358 -0.55,0.33992 -1,1.47564 -1,2.52383 0,1.04819 -0.9,2.38747 -2,2.97617 -4.7923,2.56474 -1.5827,4.71083 6.25,4.17908 3.9524,-0.26832 3.4033,0.80162 -2.7303,5.32092 -6.3058,4.64607 -6.4079,5.65669 -0.7018,6.94206 5.5214,1.24376 5.5234,3.66142 0.01,6.73302 -5.3289,2.9664 -5.8482,4.61184 -1.9232,6.09337 3.6013,1.35933 3.8698,2.24905 1.1227,3.71928 -3.4166,1.82848 -4.4506,4.88225 -2.4149,7.1317 1.4842,1.64002 1.5887,2.46814 0.6521,5.16681 -1.7778,5.1219 -0.3844,34.85825 2.7941,59.62732 5.4887,42.77186 10.1228,48.31047 43.1537,51.5763 32.0375,3.1676 43.4527,4.52911 54.5421,6.50531 6.1875,1.10266 16.3125,2.90771 22.5,4.01122 24.6377,4.39403 60.0638,9.07037 102.25,13.49726 13.2,1.38517 27.6,2.98085 32,3.54596 12.5228,1.60836 38.22284,4.08718 61.49999,5.93181 6.875,0.54481 15.2,1.21457 18.5,1.48835 9.77485,0.81096 53.59451,2.67228 83.32552,3.53941 36.31394,1.05913 203.05474,0.37673 228.67448,-0.93587 z M -1080.6735,793.43262 c 3.6291,-5.53865 0.2145,-7.06796 -42.53,-19.04799 -26.2204,-7.34881 -32.0652,-7.0139 -32.0652,1.83739 0,5.51181 6.6955,7.80698 47.5,16.28256 20.174,4.19039 24.8527,4.35064 27.0952,0.92804 z m 333.0203,-23.96729 c -3.9065,-1.39235 -10.85194,-7.33645 -12.8452,-10.99328 -0.80424,-1.47546 -0.24053,-1.26645 2.26072,0.83821 2.56301,2.15663 4.04036,2.68752 6.40056,2.30007 1.68764,-0.27704 4.95096,-0.82196 7.25182,-1.21094 3.35013,-0.56636 4.8675,-0.28442 7.61803,1.41551 1.88906,1.1675 4.13452,2.12273 4.9899,2.12273 6.18357,0 22.20102,-24.61037 32.7385,-50.30179 3.80289,-9.27183 5.11189,-9.73832 1.61503,-0.57554 -10.28175,26.94108 -27.75866,52.78055 -38.14484,56.39682 -3.1559,1.09883 -3.47244,1.39735 -1.5,1.41466 14.11907,0.12385 34.10156,-30.6958 51.5026,-79.43415 5.51196,-15.43837 10.44134,-21.55587 12.08676,-15 0.74258,2.95869 -1.84653,2.83322 31.19932,1.51204 25.02643,-1.00056 52.28013,-2.68248 57.64692,-3.5576 2.71537,-0.44277 4.74091,1.35094 27,23.90973 36.6122,37.10514 35.6366,36.83537 80.0644,22.13936 42.0585,-13.91229 61.8975,-21.96313 126.2735,-51.24292 25.4892,-11.59311 25.7168,-12.40485 10.1218,-36.10432 -17.6806,-26.86896 -26.9776,-28.45497 -130.3953,-22.24457 -44.5177,2.67336 -81.09543,4.12094 -99.86277,3.9521 -18.83703,-0.16947 -17.32895,-0.42617 13.86277,-2.35971 69.6211,-4.31572 73.5357,-5.00426 89.9087,-15.8141 19.5197,-12.88736 20.6341,-13.51331 25.421,-14.27877 8.3702,-1.33844 3.1306,-1.48965 -11.4631,-0.33081 -8.1766,0.64929 -16.8916,1.28971 -19.3666,1.42316 -2.475,0.13345 -12.15,0.75293 -21.5,1.37661 -9.35,0.62369 -27.575,1.57661 -40.5,2.11761 -110.54445,4.62707 -103.5403,3.90919 -107.88756,11.05769 -7.76099,12.76193 -4.96217,19.22563 7.88756,18.21582 20.37451,-1.60116 19.53979,-1.937 19.20988,7.72868 -0.67351,19.73284 -4.43889,39.00449 -7.9828,40.85693 -4.89189,2.55704 -42.3416,6.18756 -46.67464,4.52482 -2.2715,-0.87166 -1.9723,-2.97395 2.36077,-16.58739 2.15227,-6.7619 4.8987,-15.89436 6.10318,-20.29436 1.20448,-4.4 3.06154,-10.925 4.12681,-14.5 1.06526,-3.575 3.02636,-11.61482 4.35799,-17.86626 1.33163,-6.25144 3.10861,-12.41547 3.94886,-13.69785 1.50102,-2.29085 0.61054,-4.20941 -1.38215,-2.97785 -0.51265,0.31683 -5.68403,0.63393 -11.49195,0.70466 -9.18611,0.11186 -10.33324,0.30895 -8.8179,1.51503 1.71845,1.36774 -4.23952,1.24008 -15.25805,-0.32694 -17.59884,-2.50285 -112.13486,-0.87773 -123.75,2.12732 -4.80362,1.24279 -5.73542,0.90731 -3.55,-1.27811 0.93333,-0.93333 0.87778,-1.19506 -0.25,-1.17776 -2.07797,0.0319 -5.38171,2.96864 -7.48036,6.64947 -1.80836,3.17172 -1.80836,3.17172 -5.2886,0.51721 -3.48024,-2.65451 -3.48024,-2.65451 -2.89193,2.32829 1.40508,11.90059 16.00614,63.68385 18.8727,66.93279 0.461,0.5225 0.83819,1.69812 0.83819,2.6125 0,0.91437 1.30733,3.30755 2.90518,5.31818 1.59785,2.01063 4.13906,7.13501 5.64713,11.38751 20.47127,57.7253 40.35877,90.36525 54.94769,90.18176 2.92711,-0.0368 2.90562,-0.0714 -0.88452,-1.42225 z m -3.47353,-131.69 c -16.22049,-6.23047 -21.09608,-26.1851 -9.66181,-39.54347 13.41113,-15.66788 39.33622,-8.9467 43.53674,11.28708 4.12965,19.89239 -14.71869,35.61452 -33.87493,28.25639 z m -206.33911,89.00234 c 3.78812,-2.22084 13.71477,-11.38212 29.62415,-27.34004 23.927,-24 23.927,-24 29.5,-23.96056 3.06516,0.0217 23.50212,0.84137 45.41548,1.8215 43.32403,1.93779 42.66451,1.96995 42.64222,-2.07956 -0.026,-4.72551 -0.76339,-5.00716 -14.98469,-5.7236 -7.425,-0.37406 -18.35297,-1.32759 -24.28438,-2.11895 -5.93141,-0.79135 -10.97808,-1.43883 -11.21482,-1.43883 -1.79839,0 -5.41152,-18.45099 -6.95171,-35.5 -0.34781,-3.85 -0.89215,-8.92859 -1.20964,-11.28576 -0.57726,-4.28577 -0.57726,-4.28577 15.67675,-3.59087 16.25401,0.6949 16.25401,0.6949 15.53381,-5.21424 -2.05831,-16.88805 -4.41076,-18.10763 -37.55001,-19.46698 -12.925,-0.53018 -29.575,-1.39186 -37,-1.91485 -7.425,-0.52299 -26.775,-1.43751 -43,-2.03227 -16.225,-0.59476 -31.81158,-1.48665 -34.63684,-1.98199 -2.82526,-0.49533 -6.36243,-0.57283 -7.86038,-0.17221 -1.84932,0.49458 2.84893,1.29518 14.63684,2.49417 9.54821,0.97118 20.73538,2.16377 24.86038,2.6502 4.125,0.48643 10.63617,1.18514 14.46928,1.55268 6.60535,0.63338 7.77751,3.46212 1.43461,3.46212 -2.1319,0 -6.90389,7.91622 -6.90389,11.45282 0,3.45764 2.04505,4.1077 15.5,4.92695 6.05,0.36838 15.725,1.08901 21.5,1.60142 5.775,0.5124 14.55,0.9846 19.5,1.04934 4.95,0.0648 11.025,0.50284 13.5,0.97354 11.27783,2.14487 -80.98857,-0.66595 -138.00002,-4.20404 -101.1284,-6.27597 -112.95,-3.7902 -131.7141,27.69581 -11.9938,20.1255 -11.8978,20.43761 9.2141,29.95909 8.8,3.96881 18.7,8.46981 22,10.00223 39.0318,18.12517 111.1114,45.00557 137.00002,51.09093 9.10837,2.14101 16.49615,1.28246 23.30284,-2.70805 z m 140.19716,-62.84004 c -0.62173,-1.16171 -2.09382,-2 -3.51213,-2 -1.50106,0 -3.07283,-0.96314 -4.07983,-2.5 -0.90093,-1.375 -2.25869,-2.5 -3.01724,-2.5 -1.42487,0 -10.3908,-8.30744 -10.3908,-9.62766 0,-0.40899 -1.8,-2.87832 -4,-5.48739 -2.2,-2.60907 -4,-5.46018 -4,-6.3358 0,-0.87561 -1.125,-2.10461 -2.5,-2.7311 -1.375,-0.6265 -2.5,-1.67614 -2.5,-2.33254 0,-0.65641 -1.10872,-2.38979 -2.46382,-3.85197 -1.35511,-1.46218 -2.24396,-3.23147 -1.97524,-3.93174 0.28002,-0.72974 -0.269,-1.28988 -1.28618,-1.31225 -0.97612,-0.0215 -3.27197,-0.38627 -5.10189,-0.81068 -3.7392,-0.86723 -3.79483,1.56181 -0.61324,26.77609 1.53631,12.17534 1.9062,12.89372 7.79742,15.1436 10.33013,3.94511 39.57504,5.11159 37.64295,1.50144 z m 17,-84.99722 c 17.7946,-1.88018 72.6881,-2.37143 99,-0.88596 36.41579,2.0559 97.08933,1.05122 119,-1.97049 6.17561,-0.85168 8.04718,-0.35481 -18,-4.77872 -5.225,-0.88743 -20.075,-1.99872 -33,-2.46954 -12.925,-0.47082 -30.7,-1.30111 -39.5,-1.84509 -35.55349,-2.19777 -58.16043,-2.3735 -76.5,-0.59466 -9.625,0.93358 -20.425,1.92538 -24,2.204 -3.575,0.27863 -11.675,1.38676 -18,2.46251 -6.325,1.07575 -19.73351,2.82714 -29.79668,3.89197 -24.69274,2.61286 -27.74045,4.48267 -8.70332,5.33961 9.03263,0.40659 15.76397,0.0977 29.5,-1.35363 z M -1078.0679,543.8277 c 17.6359,-3.69385 21.1624,-23.21472 9.6122,-53.20789 -3.8749,-10.06204 -4.189,-9.4468 -2.2552,4.41735 5.4189,38.8509 0.2328,46.77204 -28.0471,42.83868 -46.5196,-6.47028 -79.7332,-43.10375 -76.0613,-83.89288 2.1405,-23.77776 30.7647,-39.22139 57.2925,-30.91114 1.7831,0.55856 4.0331,0.8501 5,0.64785 0.967,-0.20225 -1.8625,-1.35824 -6.2877,-2.56887 -44.4544,-12.16165 -74.6677,21.60878 -61.9889,69.28683 8.2454,31.006 66.0879,61.06593 102.7355,53.39007 z m 700.15102,-0.39219 c 41.0594,-7.16015 70.3691,-34.42704 68.3761,-63.61037 -0.8626,-12.62957 -3.0347,-15.09619 -5.108,-5.80052 -2.751,12.33376 -10.8186,27.30752 -15.3699,28.52697 -1.2375,0.33157 -2.25,0.98841 -2.25,1.45965 0,1.68288 -6.1376,7.80621 -10.8652,10.83988 -5.8559,3.7577 -8.0934,4.08242 -5.7641,0.83651 4.5309,-6.31393 5.9162,-13.2289 3.7148,-18.54355 -1.0976,-2.64979 -0.9166,-3.61284 1.6614,-8.8401 4.3271,-8.77397 2.435,-12.01159 -5.1643,-8.83641 -3.5146,1.46848 -3.9304,1.4417 -6.9111,-0.44504 -10.5923,-6.70479 -15.7782,-6.85808 -21.6206,-0.63911 -2.202,2.34399 -2.202,2.34399 2.5473,1.33106 3.4696,-0.74001 6.175,-0.67089 10.041,0.25653 4.9858,1.1961 6.4281,2.96662 2.4166,2.96662 -9.2668,0 -15.3833,5.08707 -16.0558,13.35352 -0.5,6.14648 -0.5,6.14648 -6.3911,5.79807 -6.5415,-0.38687 -6.1726,-1.49287 -4.001,11.99751 0.5543,3.44371 0.413,3.6874 -2.5103,4.32946 -4.8837,1.07265 -1.2285,10.41016 4.9869,12.73922 7.0747,2.65106 -2.7774,5.20333 -19.8402,5.13976 -17.8958,-0.0667 -16.2915,-46.50244 3.165,-91.60754 3.8278,-8.87391 -0.039,-2.69459 -5.364,8.57208 -17.0125,35.9948 -22.6353,73.10275 -12.7779,84.32965 5.8334,6.64391 24.2104,9.1375 43.0844,5.84615 z m -6.5697,-87.90189 c 5.8782,-4.11584 8.9098,-5.56201 12.7179,-6.0668 2.75,-0.36453 7.7467,-1.31224 11.1039,-2.10602 5.4528,-1.28929 6.512,-1.27268 9.9306,0.15568 2.1094,0.88138 5.0604,1.35217 6.5758,1.04909 1.5874,-0.31749 2.9046,-0.0832 3.1172,0.55452 0.2663,0.79889 0.959,0.78808 2.5046,-0.0391 1.175,-0.62887 3.066,-1.1434 4.2022,-1.1434 1.3528,0 2.0657,-0.64678 2.0657,-1.87427 0,-1.03085 0.6519,-3.72185 1.4486,-5.97999 1.2648,-3.58476 1.2648,-4.28953 0,-5.5543 -0.7967,-0.79672 -1.4486,-1.70573 -1.4486,-2.02001 0,-2.48888 9.3105,4.29751 11.5563,8.42333 0.75,1.37788 1.3816,1.93269 1.4037,1.2329 0.075,-2.37376 -8.0048,-10.01512 -13.245,-12.52676 -8.5146,-4.08111 -9.0722,-4.16312 -33.9004,-4.98584 -2.027,-0.0672 -4.727,0.36691 -6,0.96462 -1.273,0.5977 -5.3982,2.33452 -9.167,3.85958 -7.9528,3.2181 -10.1711,6.72484 -11.6919,18.48297 -0.464,3.58722 -1.1442,7.30545 -1.5116,8.26273 -0.5698,1.48502 0.9444,4.71504 2.2105,4.71504 0.2253,0 3.8827,-2.43181 8.1275,-5.40401 z m -780.49232,1.25972 c 2.3156,-1.17935 5.6027,-3.20435 7.3046,-4.5 1.7019,-1.29564 3.8612,-2.35571 4.7984,-2.35571 0.9372,0 6.6795,-0.9733 12.7607,-2.16288 9.3542,-1.82984 11.5834,-1.97244 14.4769,-0.92611 1.8812,0.68022 4.7049,0.95461 6.2751,0.60976 2.2942,-0.5039 3.5164,-0.0203 6.2246,2.46302 7.6089,6.97703 16.8699,10.77014 16.8699,6.90954 0,-15.01646 -5.1055,-24.86156 -14.5576,-28.07205 -2.7183,-0.9233 -6.9674,-2.42315 -9.4424,-3.333 -20.6507,-7.59149 -49.6269,6.19957 -51.4279,24.47679 -0.9733,9.87747 -0.3673,10.49911 6.7177,6.89064 z m 838.71022,-78.36928 c 0,-0.28246 -0.4937,-1.30412 -1.0971,-2.27036 -1.9365,-3.10074 6.5572,-19.09281 11.5971,-21.83542 5.798,-3.15512 7.7851,-6.2795 7.6616,-12.04666 -0.1623,-7.57959 3.9248,-8.90176 28.8384,-9.3292 12.036,-0.2065 13.3527,-0.44942 12.718,-2.34643 -0.2394,-0.71574 -3.0299,-1.19487 -7.3027,-1.2539 -3.8034,-0.0525 -9.0151,-0.44431 -11.5815,-0.8706 -4.1321,-0.68635 -4.8178,-0.53233 -5.9906,1.34553 -1.6533,2.64747 -3.0283,2.67851 -5.3432,0.12061 -2.4386,-2.69462 -5.731,-2.51794 -9.3176,0.5 -4.2952,3.61418 -6.1045,3.15896 -12.2166,-3.07374 -7.5059,-7.65414 -8.3199,-8.00488 -12.6495,-5.45038 -1.9639,1.15871 -4.514,1.97565 -5.6671,1.81543 -7.9688,-1.10733 -6.4551,22.44127 1.8497,28.77569 4.2591,3.24856 4.289,3.92927 0.5011,11.433 -3.0572,6.05631 -3.7347,9 -2.0714,9 2.1177,0 4.1729,3.1728 2.9835,4.60595 -0.9575,1.15373 -0.4463,1.39405 2.9655,1.39405 2.2673,0 4.1224,-0.23111 4.1224,-0.51357 z m -634,-28.39642 c 15.675,-1.0777 30.75,-2.4515 33.5,-3.05289 2.75,-0.60138 11.975,-1.41826 20.5,-1.81527 36.47976,-1.69889 5.3632,-3.35408 -39,-2.07454 -5.775,0.16657 -21.75,-0.28006 -35.5,-0.9925 -59.61832,-3.08906 -74.83612,-3.14618 -74.28732,-0.27885 0.2727,1.42499 3.4961,1.71901 26.2991,2.39885 46.04579,1.37281 49.77234,4.68614 5.2972,4.70988 -27.9815,0.0149 -33.2512,0.59421 -27.6232,3.0365 3.4723,1.50681 57.52879,0.35729 90.81422,-1.93118 z m 494.8016,-18.77364 c -13.1976,-19.43787 -23.0441,-32.95477 -33.591,-46.11256 -7.367,-9.19075 -10.8367,-11.77359 -6.0104,-4.47414 5.4281,8.20942 5.6842,10.78025 1.5012,15.06403 -2.0357,2.08484 -3.7014,4.51101 -3.7014,5.39147 0,2.35587 -3.0338,3.15089 -4.4794,1.17385 -2.3078,-3.15605 -0.5166,-27.35902 2.0247,-27.35902 0.8001,0 1.4547,-0.30207 1.4547,-0.67126 0,-1.46931 -3.4194,-4.32874 -5.1764,-4.32874 -1.0266,0 -2.3617,-1.08686 -2.9669,-2.41525 -1.4635,-3.21198 -4.2884,-3.81222 -6.9751,-1.48208 -2.5526,2.21384 -3.0809,2.29808 -4.6392,0.73971 -0.8768,-0.87682 -1.5163,-0.85999 -2.6361,0.0694 -1.0818,0.89783 -2.0135,0.94065 -3.4729,0.1596 -1.5221,-0.81457 -2.3493,-0.71258 -3.4925,0.4306 -0.8239,0.82391 -2.7902,1.49802 -4.3695,1.49802 -1.5793,0 -3.3733,0.50192 -3.9868,1.11538 -0.6134,0.61347 -3.409,1.11539 -6.2123,1.11539 -5.40412,0 -7.19142,1.13657 -4.85247,3.08576 2.84257,2.36889 4.99467,6.68347 3.33364,6.68347 -1.56484,0 -7.9854,3.31537 -10.55347,5.44948 -0.825,0.68559 -2.2875,1.5258 -3.25,1.86714 -1.04631,0.37105 -1.75,1.64501 -1.75,3.16817 0,1.92092 -0.8504,2.95309 -3.45717,4.19618 -1.90145,0.90673 -3.23893,2.00173 -2.97219,2.43332 0.26674,0.43159 -0.87754,1.79207 -2.54283,3.02327 -3.80645,2.81423 -4.37339,7.49705 -0.77781,6.42459 16.28898,-4.85855 43.0427,-0.089 59.4951,10.60652 5.7107,3.71248 6.6303,4.00212 10.7462,3.38491 8.3167,-1.24716 22.459,8.49453 27.8895,19.21128 2.6279,5.18574 4.191,6.11573 10.6192,6.31791 1.925,0.0606 5.975,0.65071 9,1.31148 8.3082,1.81481 8.1261,1.07383 -4.1984,-17.07788 z m -739.80162,65.30232 c 0,-1.78085 4.1469,-4.86989 16.3773,-12.19937 11.9028,-7.13322 11.663,-6.61907 7.4864,-16.04881 -3.9881,-9.00428 -6.6238,-11.27701 -11.1127,-9.58261 -2.4009,0.90622 -3.5991,0.8589 -5.6491,-0.22309 -1.4311,-0.7553 -6.6142,-2.33112 -11.5181,-3.50182 -19.7769,-4.72135 -33.3157,-16.18839 -30.8914,-26.1643 3.8575,-15.87332 46.0298,-29.29712 65.2951,-20.78399 15.2268,6.72854 20.5026,33.61859 8.8204,44.95585 -4.087,3.96627 -4.087,3.96627 -0.8421,11.0063 2.0225,4.38785 3.0635,7.98952 2.7632,9.5604 -0.3303,1.7278 0.03,2.70851 1.1446,3.11863 4.2637,1.56831 2.8496,6.24412 -1.8883,6.24412 -1.6195,0 -7.5661,2.0733 -13.2149,4.60733 -23.4892,10.53728 -26.7704,11.6418 -26.7704,9.01136 z m 33.0657,-17.65387 c 1.0639,-0.56935 1.9343,-1.63947 1.9343,-2.37803 0,-0.73857 0.9214,-1.96023 2.0475,-2.71482 2.0292,-1.35979 2.0146,-1.44491 -1.6531,-9.58497 -3.7006,-8.21299 -3.7006,-8.21299 1.3358,-13 5.8235,-5.53525 7.2899,-11.4322 5.2304,-21.03489 -1.3468,-6.28022 -2.3399,-7.1291 -4.4939,-3.84157 -1.0479,1.59919 -2.7434,2.58306 -4.794,2.78186 -2.0168,0.19554 -3.1727,0.85409 -3.1727,1.8076 0,2.66723 -4.5733,2.4005 -7.1879,-0.41922 -2.7331,-2.94749 -6.7948,-2.68877 -9.1188,0.58085 -2.2837,3.2129 -5.5009,2.17844 -11.3877,-3.66163 -5.8447,-5.79822 -9.3684,-6.90696 -13.0556,-4.10795 -2.7387,2.07894 -2.1182,2.60795 3.0589,2.60795 6.5685,0 9.3988,2.00806 6.8304,4.84609 -1.9751,2.18244 -1.4219,2.43678 7.3607,3.38422 2.424,0.26149 2.4901,0.46974 2.1743,6.85295 -0.3878,7.83571 2.0777,11.77684 8.5872,13.72715 4.0712,1.21974 13.2441,17.11276 13.2401,22.93959 0,2.54104 0.3359,2.67493 3.0641,1.21482 z"
       id="path242" />
  </g>
</svg>
